<svg width="82" height="43" viewBox="0 0 82 43" fill="none" xmlns="http://www.w3.org/2000/svg">
<path d="M6.91366 41.8444C6.52246 42.2136 6.06228 42.5021 5.55939 42.6937C5.05649 42.8852 4.52074 42.976 3.98272 42.9608C3.4447 42.9456 2.91494 42.8247 2.4237 42.6051C1.93245 42.3855 1.48934 42.0714 1.11966 41.6808C0.749987 41.2902 0.460982 40.8307 0.269151 40.3285C0.0773204 39.8264 -0.0135808 39.2915 0.00163905 38.7543C0.0168589 38.217 0.137901 37.6881 0.357855 37.1976C0.577809 36.7071 0.892366 36.2646 1.28357 35.8955L38.1619 1.11836C38.9227 0.400167 39.93 0 40.977 0C42.024 0 43.0312 0.400167 43.792 1.11836L80.6745 35.8955C81.0742 36.2622 81.3971 36.7045 81.6242 37.1968C81.8513 37.6892 81.9781 38.2216 81.9974 38.7633C82.0167 39.305 81.928 39.8451 81.7364 40.3522C81.5449 40.8594 81.2543 41.3235 80.8816 41.7176C80.5089 42.1117 80.0615 42.4279 79.5654 42.6479C79.0693 42.8679 78.5343 42.9872 77.9916 42.999C77.4489 43.0108 76.9093 42.9148 76.404 42.7166C75.8988 42.5184 75.438 42.222 75.0485 41.8444L40.977 9.71855L6.91366 41.8444Z" fill="#FFFDFD"/>
</svg>
