<svg width="82" height="43" viewBox="0 0 82 43" fill="none" xmlns="http://www.w3.org/2000/svg">
<path d="M75.0863 1.15555C75.4775 0.78643 75.9377 0.497863 76.4406 0.306321C76.9435 0.114778 77.4793 0.0240118 78.0173 0.0392088C78.5553 0.0544057 79.0851 0.175267 79.5763 0.39489C80.0675 0.614512 80.5107 0.928596 80.8803 1.31921C81.25 1.70982 81.539 2.16932 81.7308 2.67145C81.9227 3.17359 82.0136 3.70853 81.9984 4.24574C81.9831 4.78296 81.8621 5.31192 81.6421 5.80242C81.4222 6.29293 81.1076 6.73537 80.7164 7.10449L43.8381 41.8816C43.0773 42.5998 42.07 43 41.023 43C39.976 43 38.9688 42.5998 38.208 41.8816L1.32552 7.10449C0.925757 6.73781 0.60294 6.29546 0.375833 5.80315C0.148725 5.31084 0.0218524 4.77839 0.00257798 4.2367C-0.0166964 3.69502 0.0720185 3.15491 0.263562 2.64775C0.455106 2.14059 0.74566 1.67649 1.11836 1.2824C1.49105 0.888309 1.93846 0.57209 2.43458 0.352109C2.9307 0.132129 3.46566 0.0127718 4.00837 0.000970236C4.55108 -0.0108314 5.09074 0.0851565 5.59598 0.283362C6.10123 0.481567 6.56199 0.778038 6.95152 1.15555L41.023 33.2815L75.0863 1.15555Z" fill="#FFFDFD"/>
</svg>
